<?xml version="1.0" encoding="UTF-8"?>
<svg version="1.1" xmlns="http://www.w3.org/2000/svg" width="571" height="91">
<path d="M0 0 C10.23 0 20.46 0 31 0 C32.32 3.25875 33.64 6.5175 35 9.875 C35.41765625 10.90093262 35.8353125 11.92686523 36.265625 12.98388672 C36.59046875 13.79100098 36.9153125 14.59811523 37.25 15.4296875 C37.58515625 16.25710449 37.9203125 17.08452148 38.265625 17.93701172 C39 20 39 20 39 22 C39.72316406 21.27554687 40.44632812 20.55109375 41.19140625 19.8046875 C42.94393874 18.05459247 44.70099579 16.30900256 46.46484375 14.5703125 C47.28082031 13.76335938 48.09679687 12.95640625 48.9375 12.125 C49.75089844 11.32320312 50.56429687 10.52140625 51.40234375 9.6953125 C53.93978185 7.28506385 53.93978185 7.28506385 55.05957031 5.13549805 C56.53353863 2.77098226 57.63111582 1.50668865 60 0 C65.64608593 -0.88211644 71.18142058 -0.65947541 76.875 -0.4375 C78.43743047 -0.40235827 79.99993659 -0.37042424 81.5625 -0.34179688 C85.37687657 -0.26494933 89.18760493 -0.14433681 93 0 C87.88355607 6.18732755 82.31167952 11.83734871 76.625 17.5 C75.7175 18.41136719 74.81 19.32273437 73.875 20.26171875 C68.20546295 25.92308644 62.50804835 31.58046333 56.11328125 36.43115234 C54.09965977 37.99313871 54.09965977 37.99313871 52 41 C51.56276697 47.31415929 55.56749375 53.66027228 58.19921875 59.171875 C60.38809625 63.77559467 62.42428733 68.44226556 64.4375 73.125 C64.80375488 73.95499512 65.17000977 74.78499023 65.54736328 75.64013672 C65.88106934 76.42146973 66.21477539 77.20280273 66.55859375 78.0078125 C66.86079834 78.70535645 67.16300293 79.40290039 67.47436523 80.12158203 C68 82 68 82 67 85 C62.56262288 85.08690253 58.12546366 85.14035926 53.6875 85.1875 C51.79354492 85.22520508 51.79354492 85.22520508 49.86132812 85.26367188 C48.65283203 85.27333984 47.44433594 85.28300781 46.19921875 85.29296875 C45.08377686 85.3086792 43.96833496 85.32438965 42.8190918 85.34057617 C40 85 40 85 38.33862305 83.92480469 C36.35905789 81.07839001 34.87047025 78.03051568 33.3828125 74.91015625 C33.04377899 74.21039169 32.70474548 73.51062714 32.35543823 72.78965759 C31.63811872 71.3057859 30.92384443 69.8204388 30.21240234 68.33374023 C29.14224551 66.09852043 28.06225621 63.86828184 26.98046875 61.63867188 C23.46555349 54.36205407 20.11232228 47.06447734 17.06445312 39.5769043 C15.56494797 35.9467949 13.89178082 32.4123632 12.1875 28.875 C9.2204842 22.63549803 6.32327301 16.3684226 3.5 10.0625 C3.1496167 9.28696777 2.7992334 8.51143555 2.43823242 7.71240234 C0 2.23666406 0 2.23666406 0 0 Z " fill="#FFF" transform="translate(381,4)"/>
<path d="M0 0 C9.67509653 -0.09277792 19.35003937 -0.16380435 29.02548409 -0.20724869 C33.51845159 -0.22810237 38.0111142 -0.25637917 42.50390625 -0.30175781 C46.84166323 -0.34529518 51.17912738 -0.3691538 55.51708603 -0.37950897 C57.17007938 -0.38688623 58.82305713 -0.40129247 60.47592545 -0.42292023 C62.79566021 -0.4520602 65.11419299 -0.45595174 67.43408203 -0.45410156 C68.75312531 -0.46298401 70.07216858 -0.47186646 71.43118286 -0.48101807 C76.44268791 0.19445069 79.51225619 2.36348181 82.875 6.0625 C86.45654949 15.41432367 82.87823721 25.4023136 80.1328125 34.53125 C79.73289683 35.89806305 79.33414474 37.26521703 78.93649292 38.63269043 C78.1064529 41.47596251 77.26691266 44.31617485 76.41943359 47.15429688 C75.33408426 50.7896028 74.2664574 54.42980927 73.20498848 58.07215118 C72.38424466 60.88558966 71.55770094 63.69729455 70.72903061 66.50840759 C70.33333122 67.85093224 69.9386405 69.19375461 69.54498672 70.53688049 C68.99518435 72.4070409 68.4374697 74.27486972 67.87939453 76.14257812 C67.56406769 77.20416138 67.24874084 78.26574463 66.92385864 79.35949707 C66 82 66 82 64 85 C61.47802734 85.34057617 61.47802734 85.34057617 58.3359375 85.29296875 C57.21445312 85.28330078 56.09296875 85.27363281 54.9375 85.26367188 C53.1740625 85.2259668 53.1740625 85.2259668 51.375 85.1875 C50.19164062 85.17396484 49.00828125 85.16042969 47.7890625 85.14648438 C44.85892461 85.11103916 41.92968541 85.06162769 39 85 C39.62257087 78.04935142 41.37200565 71.66518329 43.34375 64.984375 C43.67290405 63.85098694 44.00205811 62.71759888 44.34118652 61.54986572 C45.38842126 57.9482198 46.44396938 54.34907562 47.5 50.75 C48.55416855 47.13611987 49.6066546 43.52175328 50.65881348 39.9072876 C51.31275914 37.66313591 51.96822321 35.41942601 52.62536621 33.1762085 C52.92237427 32.16125305 53.21938232 31.14629761 53.52539062 30.10058594 C53.7866272 29.20982361 54.04786377 28.31906128 54.3170166 27.40130615 C54.92059252 25.27918932 55.46489783 23.1404087 56 21 C35.87 21 15.74 21 -5 21 C-4.2662246 15.86357223 -3.38901911 11.47893569 -1.9375 6.5625 C-1.57527344 5.32628906 -1.21304687 4.09007812 -0.83984375 2.81640625 C-0.56269531 1.88699219 -0.28554688 0.95757812 0 0 Z " fill="#FFF" transform="translate(272,4)"/>
<path d="M0 0 C8.58 0 17.16 0 26 0 C25.34 2.31 24.68 4.62 24 7 C38.19 7 52.38 7 67 7 C66.35842353 11.49103526 65.79841212 15.1551606 64.5 19.375 C64.2421875 20.22835937 63.984375 21.08171875 63.71875 21.9609375 C63 24 63 24 62 25 C60.65016252 25.12185143 59.29425299 25.17766831 57.93920898 25.20532227 C57.07839218 25.22526749 56.21757538 25.24521271 55.33067322 25.26576233 C54.39526199 25.28247482 53.45985077 25.29918732 52.49609375 25.31640625 C51.54307877 25.33718735 50.59006378 25.35796844 49.60816956 25.37937927 C46.5513559 25.44498177 43.49445344 25.50380918 40.4375 25.5625 C38.37043337 25.60567506 36.30337586 25.64928901 34.23632812 25.69335938 C29.15764405 25.80067401 24.0788703 25.90191091 19 26 C18.7326001 26.9286084 18.4652002 27.8572168 18.18969727 28.81396484 C17.19832843 32.25479863 16.2044111 35.69489185 15.2097168 39.13476562 C14.77933161 40.62447309 14.34964046 42.11438125 13.9206543 43.60449219 C13.30439112 45.74467088 12.68564639 47.88411854 12.06640625 50.0234375 C11.87470352 50.69120209 11.68300079 51.35896667 11.48548889 52.04696655 C10.11387171 56.77225659 10.11387171 56.77225659 9 59 C0.42 59 -8.16 59 -17 59 C-16.37512822 54.62589752 -15.83646333 50.9919527 -14.63305664 46.86254883 C-14.22241722 45.44121391 -14.22241722 45.44121391 -13.80348206 43.99116516 C-13.50868454 42.98990097 -13.21388702 41.98863678 -12.91015625 40.95703125 C-12.60556992 39.91101242 -12.30098358 38.86499359 -11.98716736 37.78727722 C-11.34476455 35.58545058 -10.69998814 33.38431522 -10.05297852 31.18383789 C-9.06328914 27.81518605 -8.0828777 24.44393255 -7.10351562 21.07226562 C-6.47711333 18.92952639 -5.85017848 16.78694276 -5.22265625 14.64453125 C-4.92988297 13.63719437 -4.63710968 12.62985748 -4.33546448 11.59199524 C-4.0585527 10.65389511 -3.78164093 9.71579498 -3.49633789 8.74926758 C-3.25508682 7.92654861 -3.01383575 7.10382965 -2.76527405 6.25617981 C-2 4 -2 4 0 0 Z " fill="#FFF" transform="translate(20,30)"/>
<path d="M0 0 C8.58 0 17.16 0 26 0 C25.3019385 5.58449199 24.47201493 10.45674665 22.8828125 15.76123047 C22.66969421 16.49070389 22.45657593 17.22017731 22.23699951 17.97175598 C21.53896574 20.3553659 20.83215086 22.73626805 20.125 25.1171875 C19.63509153 26.78233741 19.14567871 28.44763321 18.65673828 30.11306763 C17.63495088 33.58887172 16.60914962 37.06345501 15.58007812 40.53710938 C14.25965911 44.99439199 12.94635842 49.45373065 11.63565063 53.91387749 C10.38458333 58.16988001 9.12988834 62.42481038 7.875 66.6796875 C7.63557678 67.49270199 7.39615356 68.30571648 7.1494751 69.14336777 C6.4740594 71.43455879 5.79605363 73.72496602 5.1171875 76.01513672 C4.91663757 76.6966832 4.71608765 77.37822968 4.50946045 78.08042908 C3.11476233 82.77047534 3.11476233 82.77047534 2 85 C-6.58 85 -15.16 85 -24 85 C-21.7496254 73.74812699 -21.7496254 73.74812699 -20.39941406 69.02563477 C-20.09859924 67.96655411 -19.79778442 66.90747345 -19.487854 65.81629944 C-19.16701843 64.70258469 -18.84618286 63.58886993 -18.515625 62.44140625 C-18.17754822 61.25763901 -17.83947144 60.07387177 -17.4911499 58.85423279 C-16.77692757 56.35678527 -16.06076693 53.85989135 -15.34277344 51.36352539 C-14.26261569 47.60638153 -13.18940423 43.84730739 -12.1171875 40.08789062 C-8.27489084 26.65684478 -4.28215178 13.29756254 0 0 Z " fill="#FFF" transform="translate(127,4)"/>
<path d="M0 0 C0.82862045 0.00359528 1.65724091 0.00719055 2.51097107 0.01089478 C3.81329178 0.01067574 3.81329178 0.01067574 5.141922 0.01045227 C8.02594967 0.01115171 10.9099136 0.01894554 13.79393005 0.02676392 C15.78790247 0.02862799 17.78187535 0.03005194 19.77584839 0.03105164 C25.03498082 0.03487769 30.29408583 0.04470871 35.5532074 0.05575562 C40.91534555 0.06596786 46.27748811 0.07054885 51.63963318 0.07559204 C62.16894213 0.0863309 72.69823069 0.10340837 83.2275238 0.12442017 C82.62355634 7.82500539 80.63467566 13.30117664 78.2275238 21.12442017 C48.5275238 21.12442017 18.8275238 21.12442017 -11.7724762 21.12442017 C-9.50440391 9.78405872 -9.50440391 9.78405872 -8.2099762 5.56192017 C-7.96118713 4.7356311 -7.71239807 3.90934204 -7.45606995 3.05801392 C-6.06798373 -0.8682871 -3.83038963 0.00701847 0 0 Z " fill="#FFF" transform="translate(164.77247619628906,3.875579833984375)"/>
<path d="M0 0 C29.7 0 59.4 0 90 0 C87.73192771 11.34036145 87.73192771 11.34036145 86.4375 15.5625 C86.18871094 16.38878906 85.93992187 17.21507813 85.68359375 18.06640625 C85 20 85 20 84 21 C81.23061034 21.09517803 78.48622841 21.12554265 75.71655273 21.11352539 C74.41423203 21.11374443 74.41423203 21.11374443 73.08560181 21.1139679 C70.20157414 21.11326846 67.3176102 21.10547463 64.43359375 21.09765625 C62.43962133 21.09579218 60.44564845 21.09436823 58.45167542 21.09336853 C53.19254298 21.08954248 47.93343797 21.07971145 42.67431641 21.06866455 C37.31217825 21.0584523 31.95003569 21.05387131 26.58789062 21.04882812 C16.05858167 21.03808926 5.52929311 21.0210118 -5 21 C-4 14 -4 14 0 0 Z " fill="#FFF" transform="translate(479,4)"/>
<path d="M0 0 C25.08 0 50.16 0 76 0 C73.73192771 11.34036145 73.73192771 11.34036145 72.4375 15.5625 C72.18871094 16.38878906 71.93992187 17.21507813 71.68359375 18.06640625 C71 20 71 20 70 21 C67.65746218 21.09492722 65.34453896 21.12559791 63.00170898 21.11352539 C61.90421326 21.11374443 61.90421326 21.11374443 60.7845459 21.1139679 C58.35503216 21.11326867 55.92559417 21.10547585 53.49609375 21.09765625 C51.81600486 21.0957921 50.13591543 21.09436819 48.45582581 21.09336853 C44.02526357 21.08954307 39.5947339 21.07971256 35.16418457 21.06866455 C30.64657024 21.05845103 26.12895066 21.05387104 21.61132812 21.04882812 C12.74087107 21.03809031 3.87043824 21.02101356 -5 21 C-8.2180049 14.56399019 -2.16684427 6.86167353 0 0 Z " fill="#FFF" transform="translate(27,4)"/>
<path d="M0 0 C1.084021 0.00523682 2.16804199 0.01047363 3.28491211 0.01586914 C4.45473633 0.0190918 5.62456055 0.02231445 6.82983398 0.02563477 C8.0615332 0.03401367 9.29323242 0.04239258 10.56225586 0.05102539 C12.41560547 0.05779297 12.41560547 0.05779297 14.30639648 0.06469727 C17.37089703 0.07652931 20.43530307 0.09301366 23.49975586 0.11352539 C22.17653124 7.40001088 20.36631353 14.45330032 18.27709961 21.55493164 C17.97155655 22.60382065 17.66601349 23.65270966 17.35121155 24.73338318 C16.7103067 26.92978668 16.06732974 29.12558653 15.42236328 31.32080078 C14.431382 34.69603144 13.4485313 38.07355648 12.46655273 41.45141602 C11.84137978 43.59022769 11.21574552 45.7289046 10.58959961 47.86743164 C10.29480209 48.88084122 10.00000458 49.89425079 9.6962738 50.93836975 C9.42251419 51.8670134 9.14875458 52.79565704 8.86669922 53.75244141 C8.62624374 54.57277359 8.38578827 55.39310577 8.13804626 56.23829651 C7.49975586 58.11352539 7.49975586 58.11352539 6.49975586 59.11352539 C4.57308079 59.20100746 2.64323725 59.22049873 0.71459961 59.21118164 C-1.04013672 59.20634766 -1.04013672 59.20634766 -2.83032227 59.20141602 C-4.67787109 59.18884766 -4.67787109 59.18884766 -6.56274414 59.17602539 C-8.41609375 59.16925781 -8.41609375 59.16925781 -10.30688477 59.16235352 C-13.37138531 59.15052147 -16.43579136 59.13403712 -19.50024414 59.11352539 C-17.70112991 50.24935022 -15.13361053 41.60862164 -12.62524414 32.92602539 C-12.18619256 31.39940442 -11.74738889 29.87271212 -11.30883789 28.34594727 C-10.66237021 26.09557858 -10.01523678 23.84541636 -9.36553955 21.59597778 C-8.33845342 18.03945098 -7.31986522 14.48103491 -6.32348633 10.91577148 C-6.14042938 10.26388351 -5.95737244 9.61199554 -5.76876831 8.94035339 C-5.27438145 7.1767192 -4.78343383 5.41212193 -4.29272461 3.64746094 C-3.19739717 0.14518013 -3.19739717 0.14518013 0 0 Z " fill="#FFF" transform="translate(267.500244140625,29.886474609375)"/>
<path d="M0 0 C8.91 0 17.82 0 27 0 C25.38543349 5.77121646 23.77062507 11.54233065 22.15234375 17.3125 C20.82498161 22.04802127 19.50269974 26.7848986 18.18571472 31.52331543 C17.36874795 34.46066795 16.54907097 37.39726048 15.72897339 40.33374023 C15.32587188 41.77953667 14.92395777 43.22566468 14.52322388 44.67211914 C13.95863279 46.70935952 13.38993759 48.74541238 12.8203125 50.78125 C12.49305176 51.95751953 12.16579102 53.13378906 11.82861328 54.34570312 C11 57 11 57 10 58 C8.07332493 58.08748207 6.14348139 58.10697334 4.21484375 58.09765625 C2.46010742 58.09282227 2.46010742 58.09282227 0.66992188 58.08789062 C-1.17762695 58.07532227 -1.17762695 58.07532227 -3.0625 58.0625 C-4.91584961 58.05573242 -4.91584961 58.05573242 -6.80664062 58.04882812 C-9.87114117 58.03699608 -12.93554721 58.02051173 -16 58 C-14.67775988 50.69613201 -12.85061449 43.63675051 -10.7421875 36.5234375 C-10.43427277 35.47217682 -10.12635803 34.42091614 -9.80911255 33.33779907 C-8.83507301 30.01567654 -7.85514013 26.69532714 -6.875 23.375 C-6.20924344 21.108188 -5.54387506 18.84126196 -4.87890625 16.57421875 C-3.25780611 11.04792476 -1.62872973 5.52407289 0 0 Z " fill="#FFF" transform="translate(503,31)"/>
<path d="M0 0 C1.084021 0.00523682 2.16804199 0.01047363 3.28491211 0.01586914 C4.45473633 0.0190918 5.62456055 0.02231445 6.82983398 0.02563477 C8.0615332 0.03401367 9.29323242 0.04239258 10.56225586 0.05102539 C12.41560547 0.05779297 12.41560547 0.05779297 14.30639648 0.06469727 C17.37089703 0.07652931 20.43530307 0.09301366 23.49975586 0.11352539 C22.05047357 6.99351787 20.25159761 13.71077674 18.27709961 20.45727539 C17.97155655 21.50757935 17.66601349 22.5578833 17.35121155 23.64001465 C16.70968951 25.84221319 16.06671829 28.04399004 15.42236328 30.24536133 C14.43250083 33.62978323 13.44926546 37.01608395 12.46655273 40.40258789 C11.84129722 42.54593248 11.21565995 44.68916575 10.58959961 46.83227539 C10.29480209 47.84882202 10.00000458 48.86536865 9.6962738 49.91271973 C9.42251419 50.84459106 9.14875458 51.7764624 8.86669922 52.73657227 C8.62624374 53.55992065 8.38578827 54.38326904 8.13804626 55.23156738 C7.49975586 57.11352539 7.49975586 57.11352539 6.49975586 58.11352539 C4.64605975 58.20090184 2.78908045 58.22050692 0.93334961 58.21118164 C-0.19135742 58.20795898 -1.31606445 58.20473633 -2.47485352 58.20141602 C-3.65885742 58.19303711 -4.84286133 58.1846582 -6.06274414 58.17602539 C-7.25061523 58.17151367 -8.43848633 58.16700195 -9.66235352 58.16235352 C-12.6083664 58.15052214 -15.55428095 58.13403826 -18.50024414 58.11352539 C-19.92081053 55.2723926 -19.04526567 53.87882653 -18.16088867 50.85351562 C-17.8437088 49.75575302 -17.52652893 48.65799042 -17.19973755 47.52696228 C-16.84773285 46.33736404 -16.49572815 45.14776581 -16.13305664 43.92211914 C-15.77887665 42.70653824 -15.42469666 41.49095734 -15.05978394 40.23854065 C-14.30816133 37.66430087 -13.55383756 35.09105049 -12.79467773 32.51904297 C-11.82005932 29.21657655 -10.85471166 25.91149306 -9.89261055 22.60536098 C-8.97652467 19.45984308 -8.05475268 16.31599697 -7.13305664 13.17211914 C-6.7851004 11.98049667 -6.43714417 10.78887421 -6.0786438 9.56114197 C-5.75515961 8.46653152 -5.43167542 7.37192108 -5.09838867 6.24414062 C-4.8133548 5.27532455 -4.52832092 4.30650848 -4.23464966 3.30833435 C-3.17589929 0.144204 -3.17589929 0.144204 0 0 Z " fill="#FFF" transform="translate(185.500244140625,30.886474609375)"/>
<path d="M0 0 C3 1 3 1 4.10668945 2.70239258 C5.1919112 5.06577023 6.26671303 7.4313519 7.3125 9.8125 C7.69728516 10.63298828 8.08207031 11.45347656 8.47851562 12.29882812 C8.83236328 13.09353516 9.18621094 13.88824219 9.55078125 14.70703125 C9.87731689 15.4338208 10.20385254 16.16061035 10.5402832 16.90942383 C11 19 11 19 10.26025391 21.07275391 C9.04526508 22.93077828 7.80239241 24.51091713 6.28515625 26.12890625 C5.76373047 26.68900391 5.24230469 27.24910156 4.70507812 27.82617188 C4.16302734 28.39916016 3.62097656 28.97214844 3.0625 29.5625 C2.52431641 30.13935547 1.98613281 30.71621094 1.43164062 31.31054688 C-0.037834 32.88148953 -1.51097941 34.44757296 -3 36 C-3.40782715 36.55075195 -3.8156543 37.10150391 -4.23583984 37.66894531 C-7.03974203 39.78448292 -9.62116563 39.33525103 -13.07421875 39.29296875 C-13.7580513 39.28872391 -14.44188385 39.28447906 -15.1464386 39.28010559 C-17.32719561 39.26333353 -19.50702309 39.22568657 -21.6875 39.1875 C-23.16730435 39.17245114 -24.6471232 39.15876308 -26.12695312 39.14648438 C-29.75160336 39.11343569 -33.37571094 39.06166446 -37 39 C-35.60919475 35.86261846 -33.98977796 33.74524719 -31.56005859 31.33300781 C-30.85948334 30.63258362 -30.15890808 29.93215942 -29.43710327 29.21051025 C-28.68184357 28.46557312 -27.92658386 27.72063599 -27.1484375 26.953125 C-26.37440582 26.18192322 -25.60037415 25.41072144 -24.80288696 24.6161499 C-22.33158077 22.15603144 -19.85340817 19.70296152 -17.375 17.25 C-15.69745948 15.58249106 -14.02037055 13.91452768 -12.34375 12.24609375 C-8.23439081 8.1587763 -4.11937353 4.07722304 0 0 Z " fill="#FFF" transform="translate(394,50)"/>
<path d="M0 0 C0.82862045 0.00359528 1.65724091 0.00719055 2.51097107 0.01089478 C3.81329178 0.01067574 3.81329178 0.01067574 5.141922 0.01045227 C8.02594967 0.01115171 10.9099136 0.01894554 13.79393005 0.02676392 C15.78790247 0.02862799 17.78187535 0.03005194 19.77584839 0.03105164 C25.03498082 0.03487769 30.29408583 0.04470871 35.5532074 0.05575562 C40.91534555 0.06596786 46.27748811 0.07054885 51.63963318 0.07559204 C62.16894213 0.0863309 72.69823069 0.10340837 83.2275238 0.12442017 C82.8975238 2.10442017 82.5675238 4.08442017 82.2275238 6.12442017 C81.8975238 6.12442017 81.5675238 6.12442017 81.2275238 6.12442017 C81.2275238 4.47442017 81.2275238 2.82442017 81.2275238 1.12442017 C52.8475238 1.12442017 24.4675238 1.12442017 -4.7724762 1.12442017 C-5.1024762 3.76442017 -5.4324762 6.40442017 -5.7724762 9.12442017 C-6.32593599 11.51601284 -7.03918273 13.77788107 -7.7724762 16.12442017 C-8.4324762 16.12442017 -9.0924762 16.12442017 -9.7724762 16.12442017 C-9.7724762 17.11442017 -9.7724762 18.10442017 -9.7724762 19.12442017 C18.9375238 19.12442017 47.6475238 19.12442017 77.2275238 19.12442017 C77.5575238 15.82442017 77.8875238 12.52442017 78.2275238 9.12442017 C79.2175238 8.79442017 80.2075238 8.46442017 81.2275238 8.12442017 C80.91743496 9.72905466 80.60436093 11.33311247 80.2900238 12.93692017 C80.11600037 13.83024048 79.94197693 14.72356079 79.76268005 15.64395142 C79.2275238 18.12442017 79.2275238 18.12442017 78.2275238 21.12442017 C48.5275238 21.12442017 18.8275238 21.12442017 -11.7724762 21.12442017 C-9.50440391 9.78405872 -9.50440391 9.78405872 -8.2099762 5.56192017 C-7.96118713 4.7356311 -7.71239807 3.90934204 -7.45606995 3.05801392 C-6.06798373 -0.8682871 -3.83038963 0.00701847 0 0 Z " fill="#FFF" transform="translate(164.77247619628906,3.875579833984375)"/>
<path d="M0 0 C29.7 0 59.4 0 90 0 C87.73192771 11.34036145 87.73192771 11.34036145 86.4375 15.5625 C86.18871094 16.38878906 85.93992187 17.21507813 85.68359375 18.06640625 C85 20 85 20 84 21 C81.23061034 21.09517803 78.48622841 21.12554265 75.71655273 21.11352539 C74.41423203 21.11374443 74.41423203 21.11374443 73.08560181 21.1139679 C70.20157414 21.11326846 67.3176102 21.10547463 64.43359375 21.09765625 C62.43962133 21.09579218 60.44564845 21.09436823 58.45167542 21.09336853 C53.19254298 21.08954248 47.93343797 21.07971145 42.67431641 21.06866455 C37.31217825 21.0584523 31.95003569 21.05387131 26.58789062 21.04882812 C16.05858167 21.03808926 5.52929311 21.0210118 -5 21 C-4.50639991 16.72213252 -3.95216435 13.90432869 -2 10 C-2 12.97 -2 15.94 -2 19 C26.38 19 54.76 19 84 19 C84.50835041 15.44154713 85.01399468 11.88204482 85.4375 8.3125 C86 5 86 5 88 1 C59.62 1 31.24 1 2 1 C2 1.66 2 2.32 2 3 C1.34 3 0.68 3 0 3 C0 2.01 0 1.02 0 0 Z " fill="#FFF" transform="translate(479,4)"/>
<path d="M0 0 C1.084021 0.00523682 2.16804199 0.01047363 3.28491211 0.01586914 C5.03964844 0.02070313 5.03964844 0.02070313 6.82983398 0.02563477 C8.0615332 0.03401367 9.29323242 0.04239258 10.56225586 0.05102539 C12.41560547 0.05779297 12.41560547 0.05779297 14.30639648 0.06469727 C17.37089703 0.07652931 20.43530307 0.09301366 23.49975586 0.11352539 C22.83975586 2.42352539 22.17975586 4.73352539 21.49975586 7.11352539 C35.68975586 7.11352539 49.87975586 7.11352539 64.49975586 7.11352539 C63.49975586 14.11352539 63.49975586 14.11352539 61.49975586 16.11352539 C61.82975586 13.80352539 62.15975586 11.49352539 62.49975586 9.11352539 C48.63975586 9.11352539 34.77975586 9.11352539 20.49975586 9.11352539 C20.49975586 7.13352539 20.49975586 5.15352539 20.49975586 3.11352539 C16.85358915 3.25169498 13.20792512 3.40034073 9.56225586 3.55102539 C8.00087891 3.61 8.00087891 3.61 6.40795898 3.67016602 C4.92392578 3.73300781 4.92392578 3.73300781 3.40991211 3.79711914 C2.0352478 3.85210571 2.0352478 3.85210571 0.6328125 3.90820312 C-1.48231694 3.88356403 -1.48231694 3.88356403 -2.50024414 5.11352539 C-2.62399414 6.12415039 -2.74774414 7.13477539 -2.87524414 8.17602539 C-3.46037603 11.86235631 -4.43161479 14.75306512 -5.80102539 18.17993164 C-6.74078604 20.77871109 -7.15838046 23.37861592 -7.50024414 26.11352539 C-8.16024414 26.11352539 -8.82024414 26.11352539 -9.50024414 26.11352539 C-9.50024414 27.76352539 -9.50024414 29.41352539 -9.50024414 31.11352539 C-10.16024414 31.11352539 -10.82024414 31.11352539 -11.50024414 31.11352539 C-10.22876562 24.11239386 -8.51931452 17.35284782 -6.43774414 10.55102539 C-6.16897461 9.65061523 -5.90020508 8.75020508 -5.62329102 7.82250977 C-3.30123935 0.14989516 -3.30123935 0.14989516 0 0 Z " fill="#FFF" transform="translate(22.500244140625,29.886474609375)"/>
<path d="M0 0 C0.99 0.33 1.98 0.66 3 1 C3 1.99 3 2.98 3 4 C1.34360972 5.01693117 -0.32608452 6.01218183 -2 7 C-4.38950232 9.10007082 -6.60226434 11.36912822 -8.83203125 13.63671875 C-9.46864182 14.27615921 -10.10525238 14.91559967 -10.76115417 15.57441711 C-12.78303333 17.60744499 -14.79782668 19.64733362 -16.8125 21.6875 C-18.18638633 23.07142297 -19.56073039 24.45489168 -20.93554688 25.83789062 C-24.29657641 29.21920398 -27.64792608 32.60971371 -31 36 C-18.13 36.495 -18.13 36.495 -5 37 C-5.33 37.66 -5.66 38.32 -6 39 C-16.23 39 -26.46 39 -37 39 C-35.2792531 35.55850619 -34.18218285 33.93626787 -31.56005859 31.33300781 C-30.85948334 30.63258362 -30.15890808 29.93215942 -29.43710327 29.21051025 C-28.68184357 28.46557312 -27.92658386 27.72063599 -27.1484375 26.953125 C-26.37440582 26.18192322 -25.60037415 25.41072144 -24.80288696 24.6161499 C-22.33158077 22.15603144 -19.85340817 19.70296152 -17.375 17.25 C-15.69745948 15.58249106 -14.02037055 13.91452768 -12.34375 12.24609375 C-8.23439081 8.1587763 -4.11937353 4.07722304 0 0 Z " fill="#FFF" transform="translate(394,50)"/>
<path d="M0 0 C0.66 0 1.32 0 2 0 C1.125 7.875 1.125 7.875 0 9 C-2.34253782 9.09492722 -4.65546104 9.12559791 -6.99829102 9.11352539 C-8.09578674 9.11374443 -8.09578674 9.11374443 -9.2154541 9.1139679 C-11.64496784 9.11326867 -14.07440583 9.10547585 -16.50390625 9.09765625 C-18.18399514 9.0957921 -19.86408457 9.09436819 -21.54417419 9.09336853 C-25.97473643 9.08954307 -30.4052661 9.07971256 -34.83581543 9.06866455 C-39.35342976 9.05845103 -43.87104934 9.05387104 -48.38867188 9.04882812 C-57.25912893 9.03809031 -66.12956176 9.02101356 -75 9 C-75.33 8.34 -75.66 7.68 -76 7 C-75.0625 4.375 -75.0625 4.375 -74 2 C-73.34 2.33 -72.68 2.66 -72 3 C-72.33 3.99 -72.66 4.98 -73 6 C-49.24 6.33 -25.48 6.66 -1 7 C-0.67 4.69 -0.34 2.38 0 0 Z " fill="#FFF" transform="translate(97,16)"/>
<path d="M0 0 C10.23 0 20.46 0 31 0 C34 7 34 7 33.6875 9.4375 C33.460625 9.953125 33.23375 10.46875 33 11 C30.96564469 7.27034861 30 5.33094958 30 1 C20.76 1 11.52 1 2 1 C2 1.66 2 2.32 2 3 C2.66 3 3.32 3 4 3 C4.67057887 4.7902061 5.3363469 6.58221489 6 8.375 C6.556875 9.87160156 6.556875 9.87160156 7.125 11.3984375 C8 14 8 14 8 16 C8.66 16 9.32 16 10 16 C10.66 18.97 11.32 21.94 12 25 C12.66 25 13.32 25 14 25 C14.67305018 26.60149886 15.33822227 28.20631029 16 29.8125 C16.37125 30.70582031 16.7425 31.59914063 17.125 32.51953125 C18 35 18 35 18 38 C18.66 38 19.32 38 20 38 C20 39.32 20 40.64 20 42 C20.66 42 21.32 42 22 42 C22 43.65 22 45.3 22 47 C22.66 47 23.32 47 24 47 C24 48.32 24 49.64 24 51 C24.66 51 25.32 51 26 51 C26 52.32 26 53.64 26 55 C25.34 55 24.68 55 24 55 C23.25169922 53.32164063 23.25169922 53.32164063 22.48828125 51.609375 C21.7634857 49.98937527 21.03817804 48.36960461 20.3125 46.75 C19.72650024 45.44156128 19.72650024 45.44156128 19.12866211 44.10668945 C16.65641845 38.61107107 14.13907833 33.13839908 11.578125 27.68359375 C11.2872551 27.06273895 10.99638519 26.44188416 10.69670105 25.80221558 C9.25170834 22.71833385 7.80161201 19.63704199 6.34301758 16.55957031 C5.80829834 15.4197168 5.2735791 14.27986328 4.72265625 13.10546875 C4.00734741 11.59182739 4.00734741 11.59182739 3.27758789 10.04760742 C2 7 2 7 0 0 Z " fill="#FFF" transform="translate(381,4)"/>
<path d="M0 0 C1.084021 0.00523682 2.16804199 0.01047363 3.28491211 0.01586914 C5.03964844 0.02070313 5.03964844 0.02070313 6.82983398 0.02563477 C8.67738281 0.03820312 8.67738281 0.03820312 10.56225586 0.05102539 C12.41560547 0.05779297 12.41560547 0.05779297 14.30639648 0.06469727 C17.37089703 0.07652931 20.43530307 0.09301366 23.49975586 0.11352539 C22.19116835 7.28832936 20.42816583 14.24317659 18.37475586 21.23852539 C17.9590332 22.67325195 17.9590332 22.67325195 17.53491211 24.13696289 C16.86019365 26.46357826 16.18176756 28.78903961 15.49975586 31.11352539 C14.83975586 31.11352539 14.17975586 31.11352539 13.49975586 31.11352539 C14.09730216 26.28387278 15.05760945 21.77829211 16.43725586 17.11352539 C16.7762793 15.95852539 17.11530273 14.80352539 17.46459961 13.61352539 C17.80620117 12.45852539 18.14780273 11.30352539 18.49975586 10.11352539 C19.17117733 7.78151946 19.83583119 5.44768207 20.49975586 3.11352539 C17.08185387 3.16544742 13.66647023 3.26053138 10.24975586 3.36352539 C9.28166992 3.37770508 8.31358398 3.39188477 7.31616211 3.40649414 C1.659256 3.50668275 1.659256 3.50668275 -3.17211914 6.16040039 C-3.82954102 7.12719727 -3.82954102 7.12719727 -4.50024414 8.11352539 C-3.48776914 0.15836468 -3.48776914 0.15836468 0 0 Z " fill="#FFF" transform="translate(267.500244140625,29.886474609375)"/>
<path d="M0 0 C8.58 0 17.16 0 26 0 C24.875 9 24.875 9 23.80859375 12.28125 C23.58623047 12.97734375 23.36386719 13.6734375 23.13476562 14.390625 C22.90466797 15.08671875 22.67457031 15.7828125 22.4375 16.5 C22.20353516 17.22703125 21.96957031 17.9540625 21.72851562 18.703125 C21.15867219 20.47080261 20.58024596 22.23570969 20 24 C19.67 24 19.34 24 19 24 C19.38687299 16.86286032 20.44193556 10.67321159 23 4 C23.33 3.01 23.66 2.02 24 1 C16.41 1 8.82 1 1 1 C0.67 4.3 0.34 7.6 0 11 C-0.66 11 -1.32 11 -2 11 C-1.95875 11.845625 -1.9175 12.69125 -1.875 13.5625 C-2.01535028 17.42213269 -2.82780164 20.33688013 -4 24 C-4.66 24 -5.32 24 -6 24 C-5.9175 25.051875 -5.835 26.10375 -5.75 27.1875 C-6.03525487 31.53763669 -7.02449969 32.9315153 -10 36 C-8.63217409 28.34274158 -6.65212672 20.95210477 -4.4375 13.5 C-4.12103516 12.4171875 -3.80457031 11.334375 -3.47851562 10.21875 C-1.1437595 2.287519 -1.1437595 2.287519 0 0 Z " fill="#FFF" transform="translate(127,4)"/>
<path d="M0 0 C3.94336509 3.94336509 5.53723185 9.86070338 7.6875 14.9375 C8.21150391 16.14341797 8.73550781 17.34933594 9.27539062 18.59179688 C9.76587891 19.74615234 10.25636719 20.90050781 10.76171875 22.08984375 C11.21506592 23.15066162 11.66841309 24.21147949 12.13549805 25.30444336 C13 28 13 28 12 31 C7.56262288 31.08690253 3.12546366 31.14035926 -1.3125 31.1875 C-3.20645508 31.22520508 -3.20645508 31.22520508 -5.13867188 31.26367188 C-6.95141602 31.27817383 -6.95141602 31.27817383 -8.80078125 31.29296875 C-10.47394409 31.31653442 -10.47394409 31.31653442 -12.1809082 31.34057617 C-15 31 -15 31 -16.78198242 29.66918945 C-19.26119923 26.27163376 -21 23.2411482 -21 19 C-20.34 19 -19.68 19 -19 19 C-18.79503906 19.56589844 -18.59007812 20.13179687 -18.37890625 20.71484375 C-18.10949219 21.44832031 -17.84007812 22.18179688 -17.5625 22.9375 C-17.29566406 23.66839844 -17.02882813 24.39929688 -16.75390625 25.15234375 C-16.14613052 26.98305678 -16.14613052 26.98305678 -15 28 C-13.07521187 28.15806531 -11.1450079 28.251135 -9.21484375 28.31640625 C-8.04501953 28.35830078 -6.87519531 28.40019531 -5.66992188 28.44335938 C-3.82237305 28.50233398 -3.82237305 28.50233398 -1.9375 28.5625 C-0.70193359 28.60568359 0.53363281 28.64886719 1.80664062 28.69335938 C4.87097335 28.79984198 7.93539073 28.90185424 11 29 C10.37768389 27.58402731 9.75364551 26.1688115 9.12890625 24.75390625 C8.78158447 23.9657251 8.4342627 23.17754395 8.07641602 22.36547852 C7.08600435 20.18899889 6.03565575 18.06119693 4.9375 15.9375 C2.31675333 10.74780007 0 5.90792848 0 0 Z " fill="#FFF" transform="translate(436,58)"/>
<path d="M0 0 C0.33 0 0.66 0 1 0 C1.66795807 7.18054929 -0.76117846 13.2135722 -3 20 C4.59 20 12.18 20 20 20 C20.33 16.7 20.66 13.4 21 10 C21.66 10 22.32 10 23 10 C22.938125 9.05125 22.87625 8.1025 22.8125 7.125 C22.9053125 5.578125 22.9053125 5.578125 23 4 C23.99 3.34 24.98 2.68 26 2 C22.97969543 19.02030457 22.97969543 19.02030457 20 22 C18.14630389 22.08737645 16.28932459 22.10698153 14.43359375 22.09765625 C13.30888672 22.09443359 12.18417969 22.09121094 11.02539062 22.08789062 C9.84138672 22.07951172 8.65738281 22.07113281 7.4375 22.0625 C6.24962891 22.05798828 5.06175781 22.05347656 3.83789062 22.04882812 C0.89187774 22.03699675 -2.05403681 22.02051287 -5 22 C-4.43437673 16.61764806 -3.48951448 11.70675825 -1.9375 6.5 C-1.57527344 5.2728125 -1.21304687 4.045625 -0.83984375 2.78125 C-0.56269531 1.8634375 -0.28554688 0.945625 0 0 Z " fill="#FFF" transform="translate(316,67)"/>
<path d="M0 0 C25.08 0 50.16 0 76 0 C75.34 3.3 74.68 6.6 74 10 C73.34 10.33 72.68 10.66 72 11 C71.80453935 6.69986566 72.0044484 4.99110319 74 1 C50.24 1 26.48 1 2 1 C1.01 3.97 0.02 6.94 -1 10 C-1.66 10.66 -2.32 11.32 -3 12 C-2.69106068 10.3743193 -2.3777305 8.74947252 -2.0625 7.125 C-1.88847656 6.22007813 -1.71445312 5.31515625 -1.53515625 4.3828125 C-1 2 -1 2 0 0 Z " fill="#FFF" transform="translate(27,4)"/>
<path d="M0 0 C1.03296013 3.41614671 0.77038559 5.43005752 -0.3203125 8.8515625 C-1.1667996 11.52724012 -1.89369382 14.22818473 -2.625 16.9375 C-3.07875 18.608125 -3.5325 20.27875 -4 22 C3.26 22.33 10.52 22.66 18 23 C18.33 21.35 18.66 19.7 19 18 C19.64389782 15.99255385 20.30562253 13.99054876 21 12 C21.66 12.66 22.32 13.32 23 14 C22.5247412 15.64696604 22.04468109 17.29254728 21.5625 18.9375 C21.29566406 19.85402344 21.02882813 20.77054688 20.75390625 21.71484375 C20 24 20 24 19 25 C17.07332493 25.08748207 15.14348139 25.10697334 13.21484375 25.09765625 C12.04501953 25.09443359 10.87519531 25.09121094 9.66992188 25.08789062 C7.82237305 25.07532227 7.82237305 25.07532227 5.9375 25.0625 C4.08415039 25.05573242 4.08415039 25.05573242 2.19335938 25.04882812 C-0.87114117 25.03699608 -3.93554721 25.02051173 -7 25 C-5.76436272 19.03066602 -4.24508869 13.23803673 -2.375 7.4375 C-2.14554688 6.71498047 -1.91609375 5.99246094 -1.6796875 5.24804688 C-1.12325219 3.49759412 -0.56213636 1.74863027 0 0 Z " fill="#FFF" transform="translate(255,64)"/>
<path d="M0 0 C0.66 0.33 1.32 0.66 2 1 C0.82996976 6.94650662 -0.79582884 12.35732184 -3 18 C-3.99 20.97 -4.98 23.94 -6 27 C1.59 26.67 9.18 26.34 17 26 C17.66 24.35 18.32 22.7 19 21 C20 24 20 24 18 29 C9.42 29 0.84 29 -8 29 C-5.75 17.75 -5.75 17.75 -4.4921875 13.8671875 C-4.22792969 13.0421875 -3.96367187 12.2171875 -3.69140625 11.3671875 C-3.42199219 10.54476562 -3.15257812 9.72234375 -2.875 8.875 C-2.59785156 8.01390625 -2.32070313 7.1528125 -2.03515625 6.265625 C-1.36165434 4.17544666 -0.68324346 2.0870099 0 0 Z " fill="#FFF" transform="translate(495,60)"/>
<path d="M0 0 C0.66 0.66 1.32 1.32 2 2 C0.88138337 5.80930204 -0.23968485 9.61787295 -1.36303711 13.42578125 C-1.74489839 14.72148054 -2.12608734 16.01737817 -2.5065918 17.31347656 C-3.05340915 19.17564988 -3.60283992 21.03705516 -4.15234375 22.8984375 C-4.48226318 24.01911621 -4.81218262 25.13979492 -5.15209961 26.29443359 C-6 29 -6 29 -7 31 C-15.58 31 -24.16 31 -33 31 C-33 30.34 -33 29.68 -33 29 C-24.75 29 -16.5 29 -8 29 C-7.67 26.36 -7.34 23.72 -7 21 C-6.34 21 -5.68 21 -5 21 C-5.061875 20.01 -5.12375 19.02 -5.1875 18 C-5.19647877 13.555511 -3.67747651 10.05049206 -2 6 C-1.32264783 4.00359361 -0.65161065 2.00495586 0 0 Z " fill="#FFF" transform="translate(36,58)"/>
<path d="M0 0 C9.67509653 -0.09277792 19.35003937 -0.16380435 29.02548409 -0.20724869 C33.51845159 -0.22810237 38.0111142 -0.25637917 42.50390625 -0.30175781 C46.84166323 -0.34529518 51.17912738 -0.3691538 55.51708603 -0.37950897 C57.17007938 -0.38688623 58.82305713 -0.40129247 60.47592545 -0.42292023 C62.79566021 -0.4520602 65.11419299 -0.45595174 67.43408203 -0.45410156 C68.75312531 -0.46298401 70.07216858 -0.47186646 71.43118286 -0.48101807 C75.62279601 0.0839427 77.74252938 1.34806919 81 4 C81.99 5.485 81.99 5.485 83 7 C82.67 7.99 82.34 8.98 82 10 C81.71125 9.360625 81.4225 8.72125 81.125 8.0625 C80.17176549 5.84793921 80.17176549 5.84793921 78 5 C78 4.34 78 3.68 78 3 C73.88758978 2.01189956 70.04653643 1.87907787 65.82299805 1.88647461 C65.12001083 1.88632858 64.41702362 1.88618256 63.69273376 1.8860321 C61.38236341 1.88672559 59.07207492 1.89449143 56.76171875 1.90234375 C55.15460759 1.90420994 53.54749585 1.90563289 51.94038391 1.90663147 C47.72031063 1.91044085 43.50027203 1.92025761 39.2802124 1.93133545 C34.97001616 1.94158357 30.6598143 1.94613637 26.34960938 1.95117188 C17.89972371 1.96188133 9.44986617 1.97893873 1 2 C0.67 1.34 0.34 0.68 0 0 Z " fill="#FFF" transform="translate(272,4)"/>
<path d="M0 0 C0.66 0 1.32 0 2 0 C1.71459486 1.56365584 1.42136502 3.12588434 1.125 4.6875 C0.96257812 5.55761719 0.80015625 6.42773438 0.6328125 7.32421875 C0 10 0 10 -2 15 C-10.58 15 -19.16 15 -28 15 C-27.34 11.7 -26.68 8.4 -26 5 C-25.34 4.67 -24.68 4.34 -24 4 C-23.75 9.625 -23.75 9.625 -26 13 C-18.41 13 -10.82 13 -3 13 C-2.01 8.71 -1.02 4.42 0 0 Z " fill="#FFF" transform="translate(131,74)"/>
<path d="M0 0 C1.1750709 3.52521269 0.72717795 4.65667856 -0.375 8.125 C-0.78878906 9.45917969 -0.78878906 9.45917969 -1.2109375 10.8203125 C-2 13 -2 13 -3 14 C-4.85369611 14.08737645 -6.71067541 14.10698153 -8.56640625 14.09765625 C-9.69111328 14.09443359 -10.81582031 14.09121094 -11.97460938 14.08789062 C-13.15861328 14.07951172 -14.34261719 14.07113281 -15.5625 14.0625 C-16.75037109 14.05798828 -17.93824219 14.05347656 -19.16210938 14.04882812 C-22.10812226 14.03699675 -25.05403681 14.02051287 -28 14 C-29 12 -29 12 -28.44140625 9.8359375 C-28.15136719 9.02382812 -27.86132812 8.21171875 -27.5625 7.375 C-27.27503906 6.55773437 -26.98757812 5.74046875 -26.69140625 4.8984375 C-26.46324219 4.27195312 -26.23507813 3.64546875 -26 3 C-25.34 3.33 -24.68 3.66 -24 4 C-24.66 6.31 -25.32 8.62 -26 11 C-18.74 11.33 -11.48 11.66 -4 12 C-3.67 10.68 -3.34 9.36 -3 8 C-2.49860111 6.57633889 -1.97775954 5.15937271 -1.4375 3.75 C-1.16808594 3.04359375 -0.89867187 2.3371875 -0.62109375 1.609375 C-0.41613281 1.07828125 -0.21117187 0.5471875 0 0 Z " fill="#FFF" transform="translate(195,75)"/>
<path d="M0 0 C8.91 0 17.82 0 27 0 C26.01 3.3 25.02 6.6 24 10 C23 6 23 6 24 2 C16.74 2 9.48 2 2 2 C1.34 3.32 0.68 4.64 0 6 C-1 3 -1 3 0 0 Z " fill="#FFF" transform="translate(503,31)"/>
<path d="M0 0 C0.99 0.33 1.98 0.66 3 1 C1.90575989 4.95340815 0.80286952 8.90428826 -0.30810547 12.85302734 C-0.68484404 14.19676071 -1.05920935 15.54116181 -1.43115234 16.88623047 C-1.96608545 18.81912208 -2.51026107 20.74944832 -3.0546875 22.6796875 C-3.54171143 24.42354736 -3.54171143 24.42354736 -4.03857422 26.20263672 C-5 29 -5 29 -7 31 C-6.51915509 25.71070598 -5.47890207 21.24570092 -3.69921875 16.25390625 C-2.64498998 12.8556381 -2.32158046 9.53738508 -2 6 C-1.34 6 -0.68 6 0 6 C0 4.02 0 2.04 0 0 Z " fill="#FFF" transform="translate(203,42)"/>
<path d="M0 0 C0.66 0.33 1.32 0.66 2 1 C0.98351621 6.16612938 -0.26752511 11.03924723 -2.203125 15.9375 C-3.60897045 19.57615882 -4.78992836 23.29254647 -6 27 C-5.01 27.33 -4.02 27.66 -3 28 C-4.65 28 -6.3 28 -8 28 C-5.73529777 18.50752471 -3.27787201 9.2059384 0 0 Z " fill="#FFF" transform="translate(495,60)"/>
<path d="M0 0 C0.33 0.99 0.66 1.98 1 3 C0.34 4.32 -0.32 5.64 -1 7 C-9.58 7 -18.16 7 -27 7 C-27 6.67 -27 6.34 -27 6 C-21.28094617 5.17463655 -15.7732851 4.87246299 -10 4.9375 C-9.22527344 4.94201172 -8.45054688 4.94652344 -7.65234375 4.95117188 C-5.76819476 4.96280242 -3.88408635 4.98073094 -2 5 C-1.855625 4.360625 -1.71125 3.72125 -1.5625 3.0625 C-1 1 -1 1 0 0 Z " fill="#FFF" transform="translate(83,48)"/>
<path d="M0 0 C1 3 1 3 -2 13 C-12.89 13 -23.78 13 -35 13 C-35 12.67 -35 12.34 -35 12 C-24.44 12 -13.88 12 -3 12 C-2.67 8.37 -2.34 4.74 -2 1 C-1.34 0.67 -0.68 0.34 0 0 Z " fill="#FFF" transform="translate(245,12)"/>
<path d="M0 0 C0.66 0 1.32 0 2 0 C0.7205886 7.60913098 -1.42756933 14.73225897 -4 22 C-4.33 22 -4.66 22 -5 22 C-5 19.69 -5 17.38 -5 15 C-4.34 15 -3.68 15 -3 15 C-3.061875 14.01 -3.12375 13.02 -3.1875 12 C-3.21491645 7.53111789 -1.7208227 4.08695392 0 0 Z " fill="#FFF" transform="translate(520,57)"/>
<path d="M0 0 C0.33 0 0.66 0 1 0 C1.40273745 6.44379923 0.53321587 11.10563917 -2 17 C-2.67735217 18.99640639 -3.34838935 20.99504414 -4 23 C-4.66 22.34 -5.32 21.68 -6 21 C-4.02 14.07 -2.04 7.14 0 0 Z " fill="#FFF" transform="translate(176,52)"/>
<path d="M0 0 C2.39843783 2.99981605 4.16057822 6.03429667 5.8125 9.5 C6.27269531 10.4384375 6.73289062 11.376875 7.20703125 12.34375 C8 15 8 15 7.13671875 17.34375 C6.76160156 17.8903125 6.38648438 18.436875 6 19 C5.67 19 5.34 19 5 19 C4.89042969 18.41992188 4.78085937 17.83984375 4.66796875 17.2421875 C3.67748562 12.36224624 2.27939024 8.45517183 0 4 C0 2.68 0 1.36 0 0 Z " fill="#FFF" transform="translate(397,54)"/>
<path d="M0 0 C8.25 0 16.5 0 25 0 C25 0.33 25 0.66 25 1 C24.35450195 1.0093457 23.70900391 1.01869141 23.04394531 1.02832031 C20.11186056 1.08209101 17.18135992 1.1657234 14.25 1.25 C12.72632813 1.27126953 12.72632813 1.27126953 11.171875 1.29296875 C5.317854 1.36991535 5.317854 1.36991535 0.296875 4.046875 C-0.13109375 4.69140625 -0.5590625 5.3359375 -1 6 C-0.67 4.02 -0.34 2.04 0 0 Z " fill="#FFF" transform="translate(182,32)"/>
<path d="M0 0 C0.66 0 1.32 0 2 0 C1.44854729 5.23880078 0.57077907 9.97350697 -1 15 C-1.66 15 -2.32 15 -3 15 C-3.33 15.66 -3.66 16.32 -4 17 C-3.35729017 11.0870696 -1.80996216 5.65755469 0 0 Z " fill="#FFF" transform="translate(158,5)"/>
<path d="M0 0 C0.66 0.33 1.32 0.66 2 1 C1.34 3.97 0.68 6.94 0 10 C-0.66 10 -1.32 10 -2 10 C-2.12117188 10.69867188 -2.24234375 11.39734375 -2.3671875 12.1171875 C-2.53476562 13.02726562 -2.70234375 13.93734375 -2.875 14.875 C-3.11863281 16.23238281 -3.11863281 16.23238281 -3.3671875 17.6171875 C-4 20 -4 20 -6 22 C-4.7205886 14.39086902 -2.57243067 7.26774103 0 0 Z " fill="#FFF" transform="translate(327,31)"/>
<path d="M0 0 C0.33 0 0.66 0 1 0 C0.64989059 10.97592998 0.64989059 10.97592998 -2.0625 15.25 C-2.701875 15.8275 -3.34125 16.405 -4 17 C-2.91103333 11.24237834 -1.70663707 5.60752181 0 0 Z " fill="#FFF" transform="translate(121,23)"/>
<path d="M0 0 C0.66 0 1.32 0 2 0 C0.07289294 10.55808656 0.07289294 10.55808656 -2 15 C-3.7469959 9.75901229 -2.23281322 4.91218908 0 0 Z " fill="#FFF" transform="translate(345,52)"/>
<path d="M0 0 C0.99 0.33 1.98 0.66 3 1 C3 1.99 3 2.98 3 4 C1.68 4 0.36 4 -1 4 C-2.76317705 5.2812243 -2.76317705 5.2812243 -4.25 7 C-5.03117187 7.8353125 -5.03117187 7.8353125 -5.828125 8.6875 C-6.21484375 9.120625 -6.6015625 9.55375 -7 10 C-7.66 9.67 -8.32 9.34 -9 9 C-6.03 6.03 -3.06 3.06 0 0 Z " fill="#FFF" transform="translate(394,50)"/>
<path d="M0 0 C4.39366678 0.50213335 6.87182342 1.87182342 10 5 C10.8125 7.75 10.8125 7.75 11 10 C9 9 9 9 8 6 C7.34 5.67 6.68 5.34 6 5 C6 4.34 6 3.68 6 3 C5.195625 2.87625 4.39125 2.7525 3.5625 2.625 C2.716875 2.41875 1.87125 2.2125 1 2 C0.67 1.34 0.34 0.68 0 0 Z " fill="#FFF" transform="translate(344,4)"/>
<path d="M0 0 C0.66 0 1.32 0 2 0 C1.71682074 1.60568666 1.42312209 3.20952047 1.125 4.8125 C0.96257812 5.70582031 0.80015625 6.59914063 0.6328125 7.51953125 C0 10 0 10 -2 13 C-2.16682272 8.07872966 -2.24828052 4.49656104 0 0 Z " fill="#FFF" transform="translate(349,38)"/>
<path d="M0 0 C1.18414294 3.55242882 0.69535532 4.69830562 -0.4375 8.1875 C-0.72496094 9.08855469 -1.01242188 9.98960938 -1.30859375 10.91796875 C-1.53675781 11.60503906 -1.76492187 12.29210938 -2 13 C-2.33 13 -2.66 13 -3 13 C-2.88652381 11.02013918 -2.7589065 9.04108402 -2.625 7.0625 C-2.55539063 5.96035156 -2.48578125 4.85820313 -2.4140625 3.72265625 C-2.27742187 2.82417969 -2.14078125 1.92570312 -2 1 C-1.34 0.67 -0.68 0.34 0 0 Z " fill="#FFF" transform="translate(145,29)"/>
<path d="M0 0 C0.33 0 0.66 0 1 0 C1.21755666 5.4389165 1.10428384 9.87080814 -1 15 C-1.33 15 -1.66 15 -2 15 C-2.19392201 9.47322267 -1.7479503 5.24385089 0 0 Z " fill="#FFF" transform="translate(355,15)"/>
<path d="M0 0 C0.33 0.66 0.66 1.32 1 2 C0.236875 2.7425 -0.52625 3.485 -1.3125 4.25 C-3.4393702 6.4263323 -5.2559956 8.52167796 -7 11 C-7.66 10.67 -8.32 10.34 -9 10 C-6.03 6.7 -3.06 3.4 0 0 Z " fill="#FFF" transform="translate(431,15)"/>
<path d="M0 0 C1.13643966 3.40931897 0.86747764 4.00335456 -0.4375 7.1875 C-0.86869141 8.26064453 -0.86869141 8.26064453 -1.30859375 9.35546875 C-1.53675781 9.89816406 -1.76492187 10.44085938 -2 11 C-2.33 11 -2.66 11 -3 11 C-3.32613618 6.32538149 -2.70582788 3.83325617 0 0 Z " fill="#FFF" transform="translate(102,4)"/>
<path d="M0 0 C0.66 0.66 1.32 1.32 2 2 C1.01 4.97 0.02 7.94 -1 11 C-1.33 11 -1.66 11 -2 11 C-1.85957123 9.35369672 -1.71250671 7.70795821 -1.5625 6.0625 C-1.48128906 5.14597656 -1.40007812 4.22945312 -1.31640625 3.28515625 C-1 1 -1 1 0 0 Z " fill="#FFF" transform="translate(140,44)"/>
<path d="M0 0 C2 2 2 2 3 5.5625 C3.33 6.696875 3.66 7.83125 4 9 C4.66 9.33 5.32 9.66 6 10 C5.01 10 4.02 10 3 10 C-0.00617269 6.99382731 0.40414684 4.17618402 0 0 Z " fill="#FFF" transform="translate(416,17)"/>
</svg>
